<svg xmlns="http://www.w3.org/2000/svg" data-prefix="fab" data-icon="behance" class="svg-inline--fa fa-behance fa-w-18" viewBox="0 0 576 361.10001" width="576" height="361.1"><path d="M232 161.8c31.8-15.2 48.4-38.2 48.4-74C280.4 17.2 227.8 0 167.1 0H0v354.4h171.8c64.4 0 124.9-30.9 124.9-102.9 0-44.5-21.1-77.4-64.7-89.7zM77.9 60.5H151c28.1 0 53.4 7.9 53.4 40.5 0 30.1-19.7 42.2-47.5 42.2h-79zm83.3 233.7H77.9v-97.6h84.9c34.3 0 56 14.3 56 50.6 0 35.8-25.9 47-57.6 47zM519.7 53.5H376V18.6h143.7zM576 229.8c0-75.9-44.4-139.2-124.9-139.2-78.2 0-131.3 58.8-131.3 135.8 0 79.9 50.3 134.7 131.3 134.7 61.3 0 101-27.6 120.1-86.3H509c-6.7 21.9-34.3 33.5-55.7 33.5-41.3 0-63-24.2-63-65.3h185.1c.3-4.2.6-8.7.6-13.2zm-185.6-31.2c2.3-33.7 24.7-54.8 58.5-54.8 35.4 0 53.2 20.8 56.2 54.8z"/></svg>