<svg xmlns="http://www.w3.org/2000/svg" width="598.166" height="598.166" viewBox="0 0 598.166 598.166"><path d="M77.484 256.149c3.249 25.337 9.668 52.12 19.079 79.603 12.914 37.715 31.157 75.605 54.226 112.616 28.436 45.625 64.362 90.102 106.78 132.194 11.113 11.029 25.857 17.104 41.515 17.104s30.401-6.075 41.516-17.104c42.417-42.092 78.344-86.569 106.779-132.193 23.068-37.011 41.312-74.9 54.226-112.616 9.411-27.482 15.829-54.265 19.078-79.603 2.231-17.393 2.234-28.619 2.137-32.581-.087-29.95-6.007-59.026-17.599-86.434-11.271-26.647-27.397-50.57-47.932-71.104-20.534-20.534-44.456-36.66-71.104-47.931C358.573 6.421 329.269.5 299.083.5c-30.185 0-59.49 5.922-87.101 17.6-26.648 11.271-50.57 27.397-71.104 47.931-20.535 20.534-36.66 44.457-47.931 71.104-11.592 27.407-17.512 56.485-17.599 86.434-.098 3.961-.094 15.187 2.136 32.58zm232.938 294.005c-3.139 3.114-7.239 4.672-11.339 4.672s-8.2-1.558-11.338-4.672C112.087 375.842 118.181 224.359 118.187 224.237v-.001c0-99.907 80.99-180.897 180.896-180.897 99.906 0 180.896 80.99 180.896 180.896v.001c.005.123 6.1 151.606-169.557 325.918z"/><path d="M299.083 598.166c-15.791 0-30.659-6.126-41.867-17.249-42.446-42.12-78.396-86.627-106.853-132.284-23.086-37.04-41.347-74.964-54.274-112.719-9.421-27.514-15.848-54.329-19.102-79.701-2.23-17.397-2.239-28.633-2.14-32.657.087-30.004 6.021-59.15 17.638-86.616 11.297-26.708 27.459-50.685 48.038-71.263 20.58-20.58 44.557-36.742 71.263-48.038C239.461 5.935 268.832 0 299.083 0c30.253 0 59.623 5.935 87.296 17.64 26.707 11.295 50.683 27.458 71.263 48.038 20.579 20.579 36.741 44.555 48.038 71.263 11.617 27.466 17.552 56.612 17.639 86.627.099 4.018.089 15.265-2.141 32.646-3.254 25.375-9.681 52.19-19.102 79.701-12.925 37.752-31.186 75.676-54.274 112.719-28.456 45.657-64.406 90.164-106.851 132.283-11.21 11.123-26.078 17.249-41.868 17.249zm0-597.166c-30.117 0-59.356 5.908-86.906 17.561-26.587 11.245-50.457 27.335-70.945 47.824-20.487 20.486-36.578 44.356-47.824 70.945-11.564 27.343-17.472 56.358-17.559 86.24-.099 4.012-.09 15.188 2.132 32.516 3.245 25.305 9.656 52.054 19.056 79.504 12.903 37.684 31.13 75.538 54.177 112.514 28.415 45.592 64.317 90.038 106.708 132.104 11.019 10.936 25.638 16.958 41.163 16.958 15.524 0 30.143-6.022 41.163-16.959 42.391-42.065 78.292-86.512 106.708-132.104 23.048-36.979 41.275-74.833 54.177-112.514 9.398-27.446 15.81-54.195 19.055-79.504 2.222-17.313 2.231-28.5 2.133-32.505-.087-29.893-5.994-58.908-17.56-86.251-11.246-26.589-27.337-50.458-47.824-70.945-20.488-20.488-44.357-36.579-70.944-47.824C358.44 6.908 329.201 1 299.083 1zm0 554.326a16.492 16.492 0 0 1-11.69-4.817c-174.9-173.561-169.777-324.788-169.705-326.295 0-99.999 81.374-181.374 181.396-181.374 100.022 0 181.396 81.374 181.396 181.396.062 1.536 1.289 38.764-18.947 97.844-11.877 34.675-28.734 69.639-50.104 103.922-26.702 42.837-60.567 84.728-100.653 124.507a16.506 16.506 0 0 1-11.693 4.817zm0-511.487c-99.471 0-180.396 80.926-180.396 180.397-.017.399-1.357 38.451 18.932 97.633 11.859 34.591 28.686 69.473 50.014 103.677 26.654 42.746 60.455 84.551 100.464 124.254a15.5 15.5 0 0 0 10.986 4.526 15.5 15.5 0 0 0 10.986-4.526c40.039-39.733 73.86-81.57 100.524-124.351 21.33-34.223 38.154-69.122 50.005-103.729 16.139-47.132 19.407-84.363 18.881-97.464 0-99.49-80.925-180.417-180.396-180.417z"/><path d="M398.267 119.279c-12.868-12.868-27.865-22.976-44.572-30.042-17.322-7.326-35.695-11.041-54.612-11.041s-37.291 3.715-54.611 11.041c-16.708 7.067-31.704 17.175-44.572 30.042-12.868 12.868-22.976 27.865-30.043 44.572-7.327 17.32-11.041 35.694-11.041 54.611 0 18.917 3.714 37.291 11.041 54.611 7.067 16.708 17.174 31.705 30.043 44.572 12.868 12.868 27.864 22.976 44.572 30.043 17.321 7.325 35.694 11.04 54.611 11.04s37.291-3.715 54.611-11.04c16.707-7.067 31.704-17.175 44.572-30.043 12.867-12.867 22.976-27.864 30.043-44.572 7.326-17.32 11.04-35.694 11.04-54.611 0-18.917-3.714-37.291-11.04-54.611-7.067-16.707-17.174-31.704-30.042-44.572zM299.083 315.89c-53.807 0-97.427-43.619-97.427-97.427s43.62-97.426 97.427-97.426c53.807 0 97.427 43.619 97.427 97.427s-43.62 97.426-97.427 97.426z"/><path d="M299.083 359.229c-18.983 0-37.422-3.728-54.806-11.079-16.769-7.094-31.818-17.237-44.73-30.15-12.912-12.91-23.056-27.96-30.15-44.73-7.352-17.38-11.08-35.819-11.08-54.806s3.728-37.425 11.08-54.806c7.093-16.769 17.237-31.818 30.15-44.731 12.913-12.914 27.963-23.057 44.73-30.149 17.383-7.352 35.822-11.08 54.806-11.08 18.982 0 37.422 3.728 54.806 11.08 16.769 7.093 31.818 17.236 44.731 30.149s23.057 27.962 30.15 44.731c7.352 17.381 11.079 35.82 11.079 54.806s-3.728 37.425-11.079 54.806c-7.094 16.768-17.237 31.817-30.15 44.73-12.912 12.912-27.962 23.057-44.731 30.15-17.383 7.351-35.823 11.079-54.806 11.079zm0-280.533c-18.849 0-37.158 3.701-54.417 11.001-16.648 7.042-31.591 17.114-44.413 29.936-12.821 12.821-22.893 27.764-29.936 44.414-7.3 17.257-11.001 35.565-11.001 54.417s3.701 37.16 11.001 54.416c7.043 16.651 17.116 31.594 29.936 44.413 12.821 12.821 27.763 22.894 44.413 29.936 17.26 7.3 35.568 11.001 54.417 11.001s37.157-3.701 54.417-11.001c16.649-7.043 31.592-17.114 44.413-29.936s22.894-27.764 29.936-44.413c7.3-17.256 11.001-35.565 11.001-54.416s-3.701-37.16-11.001-54.417c-7.042-16.649-17.114-31.592-29.936-44.414-12.822-12.822-27.765-22.894-44.413-29.936-17.261-7.3-35.568-11.001-54.417-11.001zm0 237.694c-53.997 0-97.927-43.93-97.927-97.927 0-53.997 43.93-97.926 97.927-97.926s97.927 43.93 97.927 97.927c0 53.996-43.93 97.926-97.927 97.926zm0-194.853c-53.446 0-96.927 43.481-96.927 96.926 0 53.446 43.481 96.927 96.927 96.927 53.445 0 96.927-43.481 96.927-96.926 0-53.446-43.482-96.927-96.927-96.927z"/></svg>