<svg xmlns="http://www.w3.org/2000/svg" viewBox="0 0 512 355.12201" width="512" height="355.122"><path d="M491.318 156.879H20.682C9.26 156.879 0 166.138 0 177.561c0 11.423 9.26 20.682 20.682 20.682h470.636c11.423 0 20.682-9.259 20.682-20.682 0-11.422-9.259-20.682-20.682-20.682zm0-156.879H20.682C9.26 0 0 9.26 0 20.682c0 11.422 9.26 20.682 20.682 20.682h470.636c11.423 0 20.682-9.26 20.682-20.682C512 9.26 502.741 0 491.318 0zm0 313.758H20.682C9.26 313.758 0 323.017 0 334.44c0 11.423 9.26 20.682 20.682 20.682h470.636c11.423 0 20.682-9.259 20.682-20.682 0-11.423-9.259-20.682-20.682-20.682z" fill="#fff"/></svg>