<svg xmlns="http://www.w3.org/2000/svg" width="50" height="51"><path fill-rule="evenodd" fill="#FFF" d="M24.886 50.061C11.164 50.061 0 38.897 0 25.174 0 11.452 11.164.288 24.886.288c13.723 0 24.887 11.164 24.887 24.886 0 13.723-11.164 24.887-24.887 24.887zm0-46.726c-12.042 0-21.839 9.797-21.839 21.839 0 12.042 9.797 21.84 21.839 21.84 12.042 0 21.84-9.798 21.84-21.84S36.928 3.335 24.886 3.335zm9.38 23.963l-12.075 7.448c-1.664 1.026-3.807-.17-3.807-2.124V17.727c0-1.954 2.143-3.15 3.807-2.125l12.075 7.448c1.581.975 1.581 3.274 0 4.248z"/></svg>