<svg xmlns="http://www.w3.org/2000/svg" viewBox="0 0 499.233 499.233"><g fill="#fff"><path d="M249.617 0C111.917 0 0 111.917 0 249.617s111.917 249.617 249.617 249.617 249.617-111.917 249.617-249.617S387.317 0 249.617 0zm0 465.233c-119 0-215.617-96.617-215.617-215.617S130.617 34 249.617 34s215.617 96.617 215.617 215.617-96.617 215.616-215.617 215.616z"/><path d="M192.667 139.117c-9.35 0-17 7.65-17 17v178.5c0 9.35 7.65 17 17 17s17-7.65 17-17v-178.5c0-9.35-7.65-17-17-17zm116.166 0c-9.35 0-17 7.65-17 17v178.5c0 9.35 7.65 17 17 17s17-7.65 17-17v-178.5c0-9.35-7.65-17-17-17z"/></g></svg>