<?xml version="1.0" encoding="UTF-8" standalone="no"?>
<svg
   xmlns:dc="http://purl.org/dc/elements/1.1/"
   xmlns:cc="http://creativecommons.org/ns#"
   xmlns:rdf="http://www.w3.org/1999/02/22-rdf-syntax-ns#"
   xmlns:svg="http://www.w3.org/2000/svg"
   xmlns="http://www.w3.org/2000/svg"
   xmlns:sodipodi="http://sodipodi.sourceforge.net/DTD/sodipodi-0.dtd"
   xmlns:inkscape="http://www.inkscape.org/namespaces/inkscape"
   aria-hidden="true"
   focusable="false"
   data-prefix="fab"
   data-icon="behance"
   class="svg-inline--fa fa-behance fa-w-18"
   role="img"
   viewBox="0 0 576 361.10001"
   version="1.1"
   id="svg4"
   sodipodi:docname="behance-brands.svg"
   width="576"
   height="361.10001"
   inkscape:version="0.92.4 (5da689c313, 2019-01-14)">
  <metadata
     id="metadata10">
    <rdf:RDF>
      <cc:Work
         rdf:about="">
        <dc:format>image/svg+xml</dc:format>
        <dc:type
           rdf:resource="http://purl.org/dc/dcmitype/StillImage" />
      </cc:Work>
    </rdf:RDF>
  </metadata>
  <defs
     id="defs8" />
  <sodipodi:namedview
     pagecolor="#ffffff"
     bordercolor="#666666"
     borderopacity="1"
     objecttolerance="10"
     gridtolerance="10"
     guidetolerance="10"
     inkscape:pageopacity="0"
     inkscape:pageshadow="2"
     inkscape:window-width="640"
     inkscape:window-height="480"
     id="namedview6"
     showgrid="false"
     inkscape:zoom="0.4609375"
     inkscape:cx="288"
     inkscape:cy="180.5"
     inkscape:window-x="0"
     inkscape:window-y="0"
     inkscape:window-maximized="0"
     inkscape:current-layer="svg4" />
  <path
     d="m 232,161.8 c 31.8,-15.2 48.4,-38.2 48.4,-74 C 280.4,17.2 227.8,0 167.1,0 H 0 v 354.4 h 171.8 c 64.4,0 124.9,-30.9 124.9,-102.9 0,-44.5 -21.1,-77.4 -64.7,-89.7 z M 77.9,60.5 H 151 c 28.1,0 53.4,7.9 53.4,40.5 0,30.1 -19.7,42.2 -47.5,42.2 h -79 z m 83.3,233.7 H 77.9 v -97.6 h 84.9 c 34.3,0 56,14.3 56,50.6 0,35.8 -25.9,47 -57.6,47 z M 519.7,53.5 H 376 V 18.6 H 519.7 Z M 576,229.8 C 576,153.9 531.6,90.6 451.1,90.6 c -78.2,0 -131.3,58.8 -131.3,135.8 0,79.9 50.3,134.7 131.3,134.7 61.3,0 101,-27.6 120.1,-86.3 H 509 c -6.7,21.9 -34.3,33.5 -55.7,33.5 -41.3,0 -63,-24.2 -63,-65.3 h 185.1 c 0.3,-4.2 0.6,-8.7 0.6,-13.2 z M 390.4,198.6 c 2.3,-33.7 24.7,-54.8 58.5,-54.8 35.4,0 53.2,20.8 56.2,54.8 z"
     id="path2"
     inkscape:connector-curvature="0"
     style="" />
</svg>
