<svg xmlns="http://www.w3.org/2000/svg" viewBox="0 0 29.731 29.731" width="512" height="512"><path d="M5.836 29.731c1.237 0 2.731-.31 4.374-.93 3.602-1.358 7.521-4.042 11.035-7.556 3.515-3.515 6.199-7.435 7.558-11.037 1.235-3.275 1.238-5.963.007-7.193-.177-.177-.357-.367-.543-.563-1.123-1.181-2.392-2.51-4.074-2.45-1.159.048-2.282.768-3.432 2.199-3.398 4.226-1.866 5.732-.093 7.478l.313.31c.29.29.838 1.633-4.26 6.731-1.664 1.664-3.083 2.882-4.217 3.619-.714.464-1.991 1.166-2.515.642l-.315-.318c-1.744-1.769-3.25-3.296-7.473.099C.77 21.912.051 23.034.003 24.195c-.069 1.681 1.27 2.953 2.452 4.075.195.186.385.366.562.542.611.612 1.588.919 2.819.919zM24.313 1c1.195 0 2.274 1.136 3.229 2.141.192.202.378.398.561.581.917.916.824 3.323-.236 6.134-1.31 3.472-3.913 7.266-7.33 10.683-3.416 3.415-7.208 6.018-10.681 7.327-2.811 1.062-5.218 1.152-6.133.237a29.223 29.223 0 0 0-.581-.56c-1.027-.976-2.192-2.082-2.141-3.309.035-.843.649-1.75 1.825-2.695 3.519-2.83 4.503-1.831 6.135-.176l.32.323c.78.781 2.047.608 3.767-.51 1.193-.776 2.667-2.038 4.379-3.751 4.231-4.23 5.584-6.819 4.26-8.146l-.319-.315c-1.659-1.632-2.66-2.617.171-6.138.947-1.175 1.853-1.789 2.696-1.825L24.313 1z" data-original="#000000" class="active-path"/></svg>