<?xml version="1.0" encoding="UTF-8" standalone="no"?>
<svg
   xmlns:dc="http://purl.org/dc/elements/1.1/"
   xmlns:cc="http://creativecommons.org/ns#"
   xmlns:rdf="http://www.w3.org/1999/02/22-rdf-syntax-ns#"
   xmlns:svg="http://www.w3.org/2000/svg"
   xmlns="http://www.w3.org/2000/svg"
   xmlns:sodipodi="http://sodipodi.sourceforge.net/DTD/sodipodi-0.dtd"
   xmlns:inkscape="http://www.inkscape.org/namespaces/inkscape"
   aria-hidden="true"
   focusable="false"
   data-prefix="fab"
   data-icon="linkedin-in"
   class="svg-inline--fa fa-linkedin-in fa-w-14"
   role="img"
   viewBox="0 0 448.10001 448"
   version="1.1"
   id="svg4"
   sodipodi:docname="linkedin-in-brands.svg"
   width="448.10001"
   height="448"
   inkscape:version="0.92.4 (5da689c313, 2019-01-14)">
  <metadata
     id="metadata10">
    <rdf:RDF>
      <cc:Work
         rdf:about="">
        <dc:format>image/svg+xml</dc:format>
        <dc:type
           rdf:resource="http://purl.org/dc/dcmitype/StillImage" />
      </cc:Work>
    </rdf:RDF>
  </metadata>
  <defs
     id="defs8" />
  <sodipodi:namedview
     pagecolor="#ffffff"
     bordercolor="#666666"
     borderopacity="1"
     objecttolerance="10"
     gridtolerance="10"
     guidetolerance="10"
     inkscape:pageopacity="0"
     inkscape:pageshadow="2"
     inkscape:window-width="640"
     inkscape:window-height="480"
     id="namedview6"
     showgrid="false"
     inkscape:zoom="0.4609375"
     inkscape:cx="224"
     inkscape:cy="192"
     inkscape:window-x="0"
     inkscape:window-y="0"
     inkscape:window-maximized="0"
     inkscape:current-layer="svg4" />
  <path
     d="M 100.3,448 H 7.4 V 148.9 h 92.9 V 448 Z M 53.8,108.1 C 24.1,108.1 0,83.5 0,53.8 0,24.1 24.1,0 53.8,0 c 29.7,0 53.8,24.1 53.8,53.8 0,29.7 -24.1,54.3 -53.8,54.3 z M 448,448 H 355.3 V 302.4 c 0,-34.7 -0.7,-79.2 -48.3,-79.2 -48.3,0 -55.7,37.7 -55.7,76.7 V 448 H 158.5 V 148.9 h 89.1 v 40.8 h 1.3 c 12.4,-23.5 42.7,-48.3 87.9,-48.3 94,0 111.3,61.9 111.3,142.3 V 448 Z"
     id="path2"
     inkscape:connector-curvature="0"
     style="" />
</svg>
