<svg xmlns="http://www.w3.org/2000/svg" width="95.332" height="79.615" viewBox="0 0 95.332306 79.614997"><path d="M30.512 36.081c-2.348-.676-4.696-1.019-6.98-1.019-3.527 0-6.47.806-8.752 1.793 2.2-8.054 7.485-21.951 18.013-23.516a2.501 2.501 0 0 0 2.04-1.799l2.3-8.23A2.5 2.5 0 0 0 35.067.16 17.477 17.477 0 0 0 32.712 0C20.075 0 7.56 13.19 2.279 32.076c-3.1 11.08-4.01 27.738 3.627 38.223 4.273 5.867 10.507 9 18.529 9.313l.098.002c9.898 0 18.675-6.666 21.345-16.209a22.032 22.032 0 0 0-2.032-16.851c-2.875-5.105-7.61-8.826-13.334-10.473zM92.47 46.555c-2.874-5.106-7.61-8.827-13.333-10.474-2.348-.676-4.696-1.019-6.98-1.019a21.94 21.94 0 0 0-8.752 1.793c2.2-8.054 7.485-21.951 18.014-23.516a2.503 2.503 0 0 0 2.04-1.799l2.3-8.23A2.5 2.5 0 0 0 83.693.16 17.455 17.455 0 0 0 81.338 0C68.7 0 56.186 13.19 50.904 32.076c-3.1 11.08-4.008 27.738 3.629 38.225 4.272 5.866 10.507 9 18.528 9.312l.099.002c9.897 0 18.675-6.666 21.345-16.209a22.045 22.045 0 0 0-2.034-16.851z"/></svg>