<?xml version="1.0" encoding="utf-8"?><svg xmlns="http://www.w3.org/2000/svg" xmlns:xlink="http://www.w3.org/1999/xlink"><symbol class="asvg-inline--fa afa-behance afa-w-18" viewBox="0 0 576 361.1" id="behance" xmlns="http://www.w3.org/2000/svg"><path d="M232 161.8c31.8-15.2 48.4-38.2 48.4-74C280.4 17.2 227.8 0 167.1 0H0v354.4h171.8c64.4 0 124.9-30.9 124.9-102.9 0-44.5-21.1-77.4-64.7-89.7zM77.9 60.5H151c28.1 0 53.4 7.9 53.4 40.5 0 30.1-19.7 42.2-47.5 42.2h-79zm83.3 233.7H77.9v-97.6h84.9c34.3 0 56 14.3 56 50.6 0 35.8-25.9 47-57.6 47zM519.7 53.5H376V18.6h143.7zM576 229.8c0-75.9-44.4-139.2-124.9-139.2-78.2 0-131.3 58.8-131.3 135.8 0 79.9 50.3 134.7 131.3 134.7 61.3 0 101-27.6 120.1-86.3H509c-6.7 21.9-34.3 33.5-55.7 33.5-41.3 0-63-24.2-63-65.3h185.1c.3-4.2.6-8.7.6-13.2zm-185.6-31.2c2.3-33.7 24.7-54.8 58.5-54.8 35.4 0 53.2 20.8 56.2 54.8z"/></symbol><symbol viewBox="0 0 29.731 29.731" id="call" xmlns="http://www.w3.org/2000/svg"><path d="M5.836 29.731c1.237 0 2.731-.31 4.374-.93 3.602-1.358 7.521-4.042 11.035-7.556 3.515-3.515 6.199-7.435 7.558-11.037 1.235-3.275 1.238-5.963.007-7.193-.177-.177-.357-.367-.543-.563-1.123-1.181-2.392-2.51-4.074-2.45-1.159.048-2.282.768-3.432 2.199-3.398 4.226-1.866 5.732-.093 7.478l.313.31c.29.29.838 1.633-4.26 6.731-1.664 1.664-3.083 2.882-4.217 3.619-.714.464-1.991 1.166-2.515.642l-.315-.318c-1.744-1.769-3.25-3.296-7.473.099C.77 21.912.051 23.034.003 24.195c-.069 1.681 1.27 2.953 2.452 4.075.195.186.385.366.562.542.611.612 1.588.919 2.819.919zM24.313 1c1.195 0 2.274 1.136 3.229 2.141.192.202.378.398.561.581.917.916.824 3.323-.236 6.134-1.31 3.472-3.913 7.266-7.33 10.683-3.416 3.415-7.208 6.018-10.681 7.327-2.811 1.062-5.218 1.152-6.133.237a29.223 29.223 0 0 0-.581-.56c-1.027-.976-2.192-2.082-2.141-3.309.035-.843.649-1.75 1.825-2.695 3.519-2.83 4.503-1.831 6.135-.176l.32.323c.78.781 2.047.608 3.767-.51 1.193-.776 2.667-2.038 4.379-3.751 4.231-4.23 5.584-6.819 4.26-8.146l-.319-.315c-1.659-1.632-2.66-2.617.171-6.138.947-1.175 1.853-1.789 2.696-1.825L24.313 1z" data-original="#000000" class="bactive-path"/></symbol><symbol class="csvg-inline--fa cfa-dribbble cfa-w-16" viewBox="0 0 496 496" id="dribbble" xmlns="http://www.w3.org/2000/svg"><path d="M248 0C111.252 0 0 111.252 0 248s111.252 248 248 248 248-111.252 248-248S384.748 0 248 0zm163.97 114.366c29.503 36.046 47.369 81.957 47.835 131.955-6.984-1.477-77.018-15.682-147.502-6.818-5.752-14.041-11.181-26.393-18.617-41.614 78.321-31.977 113.818-77.482 118.284-83.523zM388.421 89.87c-3.81 5.427-35.697 48.286-111.021 76.519-34.712-63.776-73.185-116.168-79.04-124.008 67.176-16.193 137.966 1.27 190.061 47.489zm-230.48-33.25c5.585 7.659 43.438 60.116 78.537 122.509-99.087 26.313-186.36 25.934-195.834 25.809C54.38 139.205 98.678 84.573 157.941 56.62zM36.17 248.323c0-2.166.043-4.322.108-6.473 9.268.19 111.92 1.513 217.706-30.146 6.064 11.868 11.857 23.915 17.174 35.949-76.599 21.575-146.194 83.527-180.531 142.306C56.794 352.405 36.17 302.73 36.17 248.323zm81.807 167.113c22.127-45.233 82.178-103.622 167.579-132.756 29.74 77.283 42.039 142.053 45.189 160.638-68.112 29.013-150.015 21.053-212.768-27.882zm248.38 8.489c-2.171-12.886-13.446-74.897-41.152-151.033 66.38-10.626 124.7 6.768 131.947 9.055-9.442 58.941-43.273 109.844-90.795 141.978z"/></symbol><symbol viewBox="0 0 430.113 430.114" id="facebook" xmlns="http://www.w3.org/2000/svg"><path d="M158.081 83.3v59.218h-43.385v72.412h43.385v215.183h89.122V214.936h59.805s5.601-34.721 8.316-72.685H247.54V92.74c0-7.4 9.717-17.354 19.321-17.354h48.557V.001h-66.021C155.878-.004 158.081 72.48 158.081 83.3z"/></symbol><symbol viewBox="0 0 598.166 598.166" id="geo" xmlns="http://www.w3.org/2000/svg"><path d="M77.484 256.149c3.249 25.337 9.668 52.12 19.079 79.603 12.914 37.715 31.157 75.605 54.226 112.616 28.436 45.625 64.362 90.102 106.78 132.194 11.113 11.029 25.857 17.104 41.515 17.104s30.401-6.075 41.516-17.104c42.417-42.092 78.344-86.569 106.779-132.193 23.068-37.011 41.312-74.9 54.226-112.616 9.411-27.482 15.829-54.265 19.078-79.603 2.231-17.393 2.234-28.619 2.137-32.581-.087-29.95-6.007-59.026-17.599-86.434-11.271-26.647-27.397-50.57-47.932-71.104-20.534-20.534-44.456-36.66-71.104-47.931C358.573 6.421 329.269.5 299.083.5c-30.185 0-59.49 5.922-87.101 17.6-26.648 11.271-50.57 27.397-71.104 47.931-20.535 20.534-36.66 44.457-47.931 71.104-11.592 27.407-17.512 56.485-17.599 86.434-.098 3.961-.094 15.187 2.136 32.58zm232.938 294.005c-3.139 3.114-7.239 4.672-11.339 4.672s-8.2-1.558-11.338-4.672C112.087 375.842 118.181 224.359 118.187 224.237v-.001c0-99.907 80.99-180.897 180.896-180.897 99.906 0 180.896 80.99 180.896 180.896v.001c.005.123 6.1 151.606-169.557 325.918z"/><path d="M299.083 598.166c-15.791 0-30.659-6.126-41.867-17.249-42.446-42.12-78.396-86.627-106.853-132.284-23.086-37.04-41.347-74.964-54.274-112.719-9.421-27.514-15.848-54.329-19.102-79.701-2.23-17.397-2.239-28.633-2.14-32.657.087-30.004 6.021-59.15 17.638-86.616 11.297-26.708 27.459-50.685 48.038-71.263 20.58-20.58 44.557-36.742 71.263-48.038C239.461 5.935 268.832 0 299.083 0c30.253 0 59.623 5.935 87.296 17.64 26.707 11.295 50.683 27.458 71.263 48.038 20.579 20.579 36.741 44.555 48.038 71.263 11.617 27.466 17.552 56.612 17.639 86.627.099 4.018.089 15.265-2.141 32.646-3.254 25.375-9.681 52.19-19.102 79.701-12.925 37.752-31.186 75.676-54.274 112.719-28.456 45.657-64.406 90.164-106.851 132.283-11.21 11.123-26.078 17.249-41.868 17.249zm0-597.166c-30.117 0-59.356 5.908-86.906 17.561-26.587 11.245-50.457 27.335-70.945 47.824-20.487 20.486-36.578 44.356-47.824 70.945-11.564 27.343-17.472 56.358-17.559 86.24-.099 4.012-.09 15.188 2.132 32.516 3.245 25.305 9.656 52.054 19.056 79.504 12.903 37.684 31.13 75.538 54.177 112.514 28.415 45.592 64.317 90.038 106.708 132.104 11.019 10.936 25.638 16.958 41.163 16.958 15.524 0 30.143-6.022 41.163-16.959 42.391-42.065 78.292-86.512 106.708-132.104 23.048-36.979 41.275-74.833 54.177-112.514 9.398-27.446 15.81-54.195 19.055-79.504 2.222-17.313 2.231-28.5 2.133-32.505-.087-29.893-5.994-58.908-17.56-86.251-11.246-26.589-27.337-50.458-47.824-70.945-20.488-20.488-44.357-36.579-70.944-47.824C358.44 6.908 329.201 1 299.083 1zm0 554.326a16.492 16.492 0 0 1-11.69-4.817c-174.9-173.561-169.777-324.788-169.705-326.295 0-99.999 81.374-181.374 181.396-181.374 100.022 0 181.396 81.374 181.396 181.396.062 1.536 1.289 38.764-18.947 97.844-11.877 34.675-28.734 69.639-50.104 103.922-26.702 42.837-60.567 84.728-100.653 124.507a16.506 16.506 0 0 1-11.693 4.817zm0-511.487c-99.471 0-180.396 80.926-180.396 180.397-.017.399-1.357 38.451 18.932 97.633 11.859 34.591 28.686 69.473 50.014 103.677 26.654 42.746 60.455 84.551 100.464 124.254a15.5 15.5 0 0 0 10.986 4.526 15.5 15.5 0 0 0 10.986-4.526c40.039-39.733 73.86-81.57 100.524-124.351 21.33-34.223 38.154-69.122 50.005-103.729 16.139-47.132 19.407-84.363 18.881-97.464 0-99.49-80.925-180.417-180.396-180.417z"/><path d="M398.267 119.279c-12.868-12.868-27.865-22.976-44.572-30.042-17.322-7.326-35.695-11.041-54.612-11.041s-37.291 3.715-54.611 11.041c-16.708 7.067-31.704 17.175-44.572 30.042-12.868 12.868-22.976 27.865-30.043 44.572-7.327 17.32-11.041 35.694-11.041 54.611 0 18.917 3.714 37.291 11.041 54.611 7.067 16.708 17.174 31.705 30.043 44.572 12.868 12.868 27.864 22.976 44.572 30.043 17.321 7.325 35.694 11.04 54.611 11.04s37.291-3.715 54.611-11.04c16.707-7.067 31.704-17.175 44.572-30.043 12.867-12.867 22.976-27.864 30.043-44.572 7.326-17.32 11.04-35.694 11.04-54.611 0-18.917-3.714-37.291-11.04-54.611-7.067-16.707-17.174-31.704-30.042-44.572zM299.083 315.89c-53.807 0-97.427-43.619-97.427-97.427s43.62-97.426 97.427-97.426c53.807 0 97.427 43.619 97.427 97.427s-43.62 97.426-97.427 97.426z"/><path d="M299.083 359.229c-18.983 0-37.422-3.728-54.806-11.079-16.769-7.094-31.818-17.237-44.73-30.15-12.912-12.91-23.056-27.96-30.15-44.73-7.352-17.38-11.08-35.819-11.08-54.806s3.728-37.425 11.08-54.806c7.093-16.769 17.237-31.818 30.15-44.731 12.913-12.914 27.963-23.057 44.73-30.149 17.383-7.352 35.822-11.08 54.806-11.08 18.982 0 37.422 3.728 54.806 11.08 16.769 7.093 31.818 17.236 44.731 30.149s23.057 27.962 30.15 44.731c7.352 17.381 11.079 35.82 11.079 54.806s-3.728 37.425-11.079 54.806c-7.094 16.768-17.237 31.817-30.15 44.73-12.912 12.912-27.962 23.057-44.731 30.15-17.383 7.351-35.823 11.079-54.806 11.079zm0-280.533c-18.849 0-37.158 3.701-54.417 11.001-16.648 7.042-31.591 17.114-44.413 29.936-12.821 12.821-22.893 27.764-29.936 44.414-7.3 17.257-11.001 35.565-11.001 54.417s3.701 37.16 11.001 54.416c7.043 16.651 17.116 31.594 29.936 44.413 12.821 12.821 27.763 22.894 44.413 29.936 17.26 7.3 35.568 11.001 54.417 11.001s37.157-3.701 54.417-11.001c16.649-7.043 31.592-17.114 44.413-29.936s22.894-27.764 29.936-44.413c7.3-17.256 11.001-35.565 11.001-54.416s-3.701-37.16-11.001-54.417c-7.042-16.649-17.114-31.592-29.936-44.414-12.822-12.822-27.765-22.894-44.413-29.936-17.261-7.3-35.568-11.001-54.417-11.001zm0 237.694c-53.997 0-97.927-43.93-97.927-97.927 0-53.997 43.93-97.926 97.927-97.926s97.927 43.93 97.927 97.927c0 53.996-43.93 97.926-97.927 97.926zm0-194.853c-53.446 0-96.927 43.481-96.927 96.926 0 53.446 43.481 96.927 96.927 96.927 53.445 0 96.927-43.481 96.927-96.926 0-53.446-43.482-96.927-96.927-96.927z"/></symbol><symbol viewBox="0 0 31.122 59.414" id="left-arrow-thin" xmlns="http://www.w3.org/2000/svg"><path data-original="#48A0DC" class="factive-path" data-old_color="#FFFFFF" d="M2.829 29.707L31.122 58l-1.415 1.414L0 29.707 29.707 0l1.415 1.414z"/></symbol><symbol class="gsvg-inline--fa gfa-linkedin-in gfa-w-14" viewBox="0 0 448.1 448" id="linkedin" xmlns="http://www.w3.org/2000/svg"><path d="M100.3 448H7.4V148.9h92.9V448zM53.8 108.1C24.1 108.1 0 83.5 0 53.8 0 24.1 24.1 0 53.8 0c29.7 0 53.8 24.1 53.8 53.8 0 29.7-24.1 54.3-53.8 54.3zM448 448h-92.7V302.4c0-34.7-.7-79.2-48.3-79.2-48.3 0-55.7 37.7-55.7 76.7V448h-92.8V148.9h89.1v40.8h1.3c12.4-23.5 42.7-48.3 87.9-48.3 94 0 111.3 61.9 111.3 142.3V448z"/></symbol><symbol viewBox="0 0 512 355.122" id="menu" xmlns="http://www.w3.org/2000/svg"><path d="M491.318 156.879H20.682C9.26 156.879 0 166.138 0 177.561c0 11.423 9.26 20.682 20.682 20.682h470.636c11.423 0 20.682-9.259 20.682-20.682 0-11.422-9.259-20.682-20.682-20.682zm0-156.879H20.682C9.26 0 0 9.26 0 20.682c0 11.422 9.26 20.682 20.682 20.682h470.636c11.423 0 20.682-9.26 20.682-20.682C512 9.26 502.741 0 491.318 0zm0 313.758H20.682C9.26 313.758 0 323.017 0 334.44c0 11.423 9.26 20.682 20.682 20.682h470.636c11.423 0 20.682-9.259 20.682-20.682 0-11.423-9.259-20.682-20.682-20.682z"/></symbol><symbol viewBox="0 0 469.038 469.038" id="plane" xmlns="http://www.w3.org/2000/svg"><path d="M465.023 4.079c-3.9-3.9-9.9-5-14.9-2.8l-442 193.7c-4.7 2.1-7.8 6.6-8.1 11.7s2.4 9.9 6.8 12.4l154.1 87.4 91.5 155.7c2.4 4.1 6.9 6.7 11.6 6.7h.8c5.1-.3 9.5-3.4 11.6-8.1l191.5-441.8c2.2-5.1 1.1-11-2.9-14.9zm-70.3 50.9l-226.2 224.7-124.9-70.8 351.1-153.9zm-132.5 370.6l-74.5-126.9 227.5-226-153 352.9z"/></symbol><symbol viewBox="0 0 95.332 79.615" id="quote" xmlns="http://www.w3.org/2000/svg"><path d="M30.512 36.081c-2.348-.676-4.696-1.019-6.98-1.019-3.527 0-6.47.806-8.752 1.793 2.2-8.054 7.485-21.951 18.013-23.516a2.501 2.501 0 0 0 2.04-1.799l2.3-8.23A2.5 2.5 0 0 0 35.067.16 17.477 17.477 0 0 0 32.712 0C20.075 0 7.56 13.19 2.279 32.076c-3.1 11.08-4.01 27.738 3.627 38.223 4.273 5.867 10.507 9 18.529 9.313l.098.002c9.898 0 18.675-6.666 21.345-16.209a22.032 22.032 0 0 0-2.032-16.851c-2.875-5.105-7.61-8.826-13.334-10.473zM92.47 46.555c-2.874-5.106-7.61-8.827-13.333-10.474-2.348-.676-4.696-1.019-6.98-1.019a21.94 21.94 0 0 0-8.752 1.793c2.2-8.054 7.485-21.951 18.014-23.516a2.503 2.503 0 0 0 2.04-1.799l2.3-8.23A2.5 2.5 0 0 0 83.693.16 17.455 17.455 0 0 0 81.338 0C68.7 0 56.186 13.19 50.904 32.076c-3.1 11.08-4.008 27.738 3.629 38.225 4.272 5.866 10.507 9 18.528 9.312l.099.002c9.897 0 18.675-6.666 21.345-16.209a22.045 22.045 0 0 0-2.034-16.851z"/></symbol><symbol viewBox="0 0 62.1 116" id="right-arrow-thick" xmlns="http://www.w3.org/2000/svg"><path d="M7 114.8c-.8.8-1.8 1.2-2.9 1.2-1.1 0-2.1-.4-2.9-1.2-1.6-1.6-1.6-4.2 0-5.8l51-51-51-51c-1.6-1.6-1.6-4.2 0-5.8C2.8-.4 5.4-.4 7 1.2l53.9 53.9c1.6 1.6 1.6 4.2 0 5.8z"/></symbol><symbol viewBox="0 0 31.122 59.414" id="right-arrow-thin" xmlns="http://www.w3.org/2000/svg"><path data-original="#48A0DC" class="lactive-path" data-old_color="#FFFFFF" d="M28.293 29.707L0 1.414 1.415 0l29.707 29.707L1.415 59.414 0 58z"/></symbol><symbol viewBox="0 0 15.56 15.56" id="rss-feed" xmlns="http://www.w3.org/2000/svg"><path d="M-4-4.44h24v24H-4z"/><circle cx="2.18" cy="13.38" r="2.18"/><path d="M0 0v2.83c7.03 0 12.73 5.7 12.73 12.73h2.83C15.56 6.97 8.59 0 0 0zm0 5.66v2.83c3.9 0 7.07 3.17 7.07 7.07H9.9c0-5.47-4.43-9.9-9.9-9.9z"/></symbol><symbol viewBox="0 0 0 0" id="sprite" xmlns="http://www.w3.org/2000/svg"/><symbol class="osvg-inline--fa ofa-twitter ofa-w-16" viewBox="0 0 511.998 415.837" id="twitter" xmlns="http://www.w3.org/2000/svg"><path d="M459.37 103.634c.325 4.548.325 9.097.325 13.645 0 138.72-105.583 298.558-298.558 298.558-59.452 0-114.68-17.219-161.137-47.106 8.447.974 16.568 1.299 25.34 1.299 49.055 0 94.213-16.568 130.274-44.832-46.132-.975-84.792-31.188-98.112-72.772 6.498.974 12.995 1.624 19.818 1.624 9.421 0 18.843-1.3 27.614-3.573-48.081-9.747-84.143-51.98-84.143-102.985v-1.299c13.969 7.797 30.214 12.67 47.431 13.319-28.264-18.843-46.781-51.005-46.781-87.391 0-19.492 5.197-37.36 14.294-52.954C87.39 82.842 165.035 124.425 252.1 128.974c-1.624-7.797-2.599-15.918-2.599-24.04C249.501 47.106 296.283 0 354.435 0c30.213 0 57.502 12.67 76.67 33.137 23.715-4.548 46.456-13.32 66.599-25.34-7.798 24.366-24.366 44.833-46.132 57.827 21.117-2.273 41.584-8.122 60.426-16.243-14.292 20.791-32.161 39.308-52.628 54.253z"/></symbol><symbol viewBox="0 0 499.233 499.233" id="video-pause" xmlns="http://www.w3.org/2000/svg"><path d="M249.617 0C111.917 0 0 111.917 0 249.617s111.917 249.617 249.617 249.617 249.617-111.917 249.617-249.617S387.317 0 249.617 0zm0 465.233c-119 0-215.617-96.617-215.617-215.617S130.617 34 249.617 34s215.617 96.617 215.617 215.617-96.617 215.616-215.617 215.616z"/><path d="M192.667 139.117c-9.35 0-17 7.65-17 17v178.5c0 9.35 7.65 17 17 17s17-7.65 17-17v-178.5c0-9.35-7.65-17-17-17zm116.166 0c-9.35 0-17 7.65-17 17v178.5c0 9.35 7.65 17 17 17s17-7.65 17-17v-178.5c0-9.35-7.65-17-17-17z"/></symbol><symbol viewBox="0 0 50 51" id="video-play" xmlns="http://www.w3.org/2000/svg"><path fill-rule="evenodd" d="M24.886 50.061C11.164 50.061 0 38.897 0 25.174 0 11.452 11.164.288 24.886.288c13.723 0 24.887 11.164 24.887 24.886 0 13.723-11.164 24.887-24.887 24.887zm0-46.726c-12.042 0-21.839 9.797-21.839 21.839 0 12.042 9.797 21.84 21.839 21.84 12.042 0 21.84-9.798 21.84-21.84S36.928 3.335 24.886 3.335zm9.38 23.963l-12.075 7.448c-1.664 1.026-3.807-.17-3.807-2.124V17.727c0-1.954 2.143-3.15 3.807-2.125l12.075 7.448c1.581.975 1.581 3.274 0 4.248z"/></symbol></svg>