<?xml version="1.0" encoding="UTF-8" standalone="no"?>
<!-- Generator: Adobe Illustrator 18.1.1, SVG Export Plug-In . SVG Version: 6.00 Build 0)  -->

<svg
   xmlns:dc="http://purl.org/dc/elements/1.1/"
   xmlns:cc="http://creativecommons.org/ns#"
   xmlns:rdf="http://www.w3.org/1999/02/22-rdf-syntax-ns#"
   xmlns:svg="http://www.w3.org/2000/svg"
   xmlns="http://www.w3.org/2000/svg"
   xmlns:sodipodi="http://sodipodi.sourceforge.net/DTD/sodipodi-0.dtd"
   xmlns:inkscape="http://www.inkscape.org/namespaces/inkscape"
   version="1.1"
   id="Capa_1"
   x="0px"
   y="0px"
   viewBox="0 0 499.233 499.233"
   style="enable-background:new 0 0 499.233 499.233;"
   xml:space="preserve"
   sodipodi:docname="video-pause.svg"
   inkscape:version="0.92.4 (5da689c313, 2019-01-14)"><metadata
   id="metadata47"><rdf:RDF><cc:Work
       rdf:about=""><dc:format>image/svg+xml</dc:format><dc:type
         rdf:resource="http://purl.org/dc/dcmitype/StillImage" /></cc:Work></rdf:RDF></metadata><defs
   id="defs45" /><sodipodi:namedview
   pagecolor="#ffffff"
   bordercolor="#666666"
   borderopacity="1"
   objecttolerance="10"
   gridtolerance="10"
   guidetolerance="10"
   inkscape:pageopacity="0"
   inkscape:pageshadow="2"
   inkscape:window-width="640"
   inkscape:window-height="480"
   id="namedview43"
   showgrid="false"
   inkscape:zoom="0.47272516"
   inkscape:cx="249.6165"
   inkscape:cy="249.6165"
   inkscape:window-x="0"
   inkscape:window-y="0"
   inkscape:window-maximized="0"
   inkscape:current-layer="Capa_1" />
<g
   id="g10"
   style="fill:#ffffff">
	<g
   id="g8"
   style="fill:#ffffff">
		<path
   d="M249.617,0C111.917,0,0,111.917,0,249.617s111.917,249.617,249.617,249.617s249.617-111.917,249.617-249.617    S387.317,0,249.617,0z M249.617,465.233c-119,0-215.617-96.617-215.617-215.617S130.617,34,249.617,34    s215.617,96.617,215.617,215.617S368.617,465.233,249.617,465.233z"
   id="path2"
   style="fill:#ffffff" />
		<path
   d="M192.667,139.117c-9.35,0-17,7.65-17,17v178.5c0,9.35,7.65,17,17,17c9.35,0,17-7.65,17-17v-178.5    C209.667,146.767,202.017,139.117,192.667,139.117z"
   id="path4"
   style="fill:#ffffff" />
		<path
   d="M308.833,139.117c-9.35,0-17,7.65-17,17v178.5c0,9.35,7.65,17,17,17s17-7.65,17-17v-178.5    C325.833,146.767,318.183,139.117,308.833,139.117z"
   id="path6"
   style="fill:#ffffff" />
	</g>
</g>
<g
   id="g12">
</g>
<g
   id="g14">
</g>
<g
   id="g16">
</g>
<g
   id="g18">
</g>
<g
   id="g20">
</g>
<g
   id="g22">
</g>
<g
   id="g24">
</g>
<g
   id="g26">
</g>
<g
   id="g28">
</g>
<g
   id="g30">
</g>
<g
   id="g32">
</g>
<g
   id="g34">
</g>
<g
   id="g36">
</g>
<g
   id="g38">
</g>
<g
   id="g40">
</g>
</svg>