<svg
        xmlns="http://www.w3.org/2000/svg"
        xmlns:xlink="http://www.w3.org/1999/xlink"
        width="50px" height="51px">
    <path fill-rule="evenodd"  fill="rgb(255, 255, 255)"
          d="M24.886,50.061 C11.164,50.061 -0.000,38.897 -0.000,25.174 C-0.000,11.452 11.164,0.288 24.886,0.288 C38.609,0.288 49.773,11.452 49.773,25.174 C49.773,38.897 38.609,50.061 24.886,50.061 ZM24.886,3.335 C12.844,3.335 3.047,13.132 3.047,25.174 C3.047,37.216 12.844,47.014 24.886,47.014 C36.928,47.014 46.726,37.216 46.726,25.174 C46.726,13.132 36.928,3.335 24.886,3.335 ZM34.266,27.298 L22.191,34.746 C20.527,35.772 18.384,34.576 18.384,32.622 L18.384,17.727 C18.384,15.773 20.527,14.577 22.191,15.602 L34.266,23.050 C35.847,24.025 35.847,26.324 34.266,27.298 Z"/>
</svg>